<svg id="Layer_1" data-name="Layer 1" xmlns="http://www.w3.org/2000/svg" viewBox="0 0 700 567"><defs><style>.cls-1{fill:#404242;}.cls-2{opacity:0.7;}.cls-3,.cls-4{fill:#707070;stroke:#404242;stroke-miterlimit:10;}.cls-3{opacity:0.73;}</style></defs><title>final</title><path class="cls-1" d="M291.06,17.74h-1.93V2.79h-5.28V1.07h12.49V2.79h-5.28Z"/><path class="cls-1" d="M307.12,17.74V9.66a3.27,3.27,0,0,0-.7-2.28,2.8,2.8,0,0,0-2.18-.76,3.6,3.6,0,0,0-2.88,1.07,5.49,5.49,0,0,0-.9,3.52v6.53h-1.89V0h1.89V5.37A11.9,11.9,0,0,1,300.37,7h.11a3.8,3.8,0,0,1,1.59-1.42A5.12,5.12,0,0,1,304.43,5a4.79,4.79,0,0,1,3.43,1.09A4.55,4.55,0,0,1,309,9.59v8.15Z"/><path class="cls-1" d="M318.17,18a5.77,5.77,0,0,1-4.37-1.69,6.54,6.54,0,0,1-1.6-4.69,7.27,7.27,0,0,1,1.49-4.8,4.94,4.94,0,0,1,4-1.77,4.71,4.71,0,0,1,3.72,1.54,5.94,5.94,0,0,1,1.37,4.08v1.19h-8.61a5,5,0,0,0,1.11,3.34,3.84,3.84,0,0,0,3,1.14,10.07,10.07,0,0,0,4-.84v1.69a10.22,10.22,0,0,1-1.9.62A11,11,0,0,1,318.17,18ZM317.66,6.6a3.11,3.11,0,0,0-2.4,1,4.45,4.45,0,0,0-1.05,2.71h6.53a4.18,4.18,0,0,0-.8-2.74A2.82,2.82,0,0,0,317.66,6.6Z"/><path class="cls-1" d="M332.34,17.74V1.07h1.94V17.74Z"/><path class="cls-1" d="M347.12,17.74V9.66a3.27,3.27,0,0,0-.7-2.28,2.8,2.8,0,0,0-2.18-.76,3.62,3.62,0,0,0-2.87,1.06,5.36,5.36,0,0,0-.91,3.5v6.56h-1.89V5.24h1.54l.3,1.71h.09a3.92,3.92,0,0,1,1.63-1.43,5.42,5.42,0,0,1,2.34-.5,4.77,4.77,0,0,1,3.4,1.08A4.65,4.65,0,0,1,349,9.59v8.15Z"/><path class="cls-1" d="M356.93,16.4a6.07,6.07,0,0,0,1-.07,7.25,7.25,0,0,0,.74-.15v1.44a3.56,3.56,0,0,1-.91.25,7.22,7.22,0,0,1-1.07.1c-2.42,0-3.63-1.28-3.63-3.82V6.71h-1.79V5.8L353,5l.8-2.67h1.09V5.24h3.63V6.71h-3.63v7.36a2.51,2.51,0,0,0,.54,1.73A1.88,1.88,0,0,0,356.93,16.4Z"/><path class="cls-1" d="M366.42,18A5.78,5.78,0,0,1,362,16.28a6.58,6.58,0,0,1-1.6-4.69,7.27,7.27,0,0,1,1.49-4.8,5,5,0,0,1,4-1.77,4.7,4.7,0,0,1,3.71,1.54A5.94,5.94,0,0,1,371,10.64v1.19H362.4a5,5,0,0,0,1.11,3.34,3.87,3.87,0,0,0,3,1.14,10.07,10.07,0,0,0,4-.84v1.69a10.38,10.38,0,0,1-1.89.62A11.11,11.11,0,0,1,366.42,18ZM365.9,6.6a3.11,3.11,0,0,0-2.4,1,4.51,4.51,0,0,0-1.05,2.71H369a4.18,4.18,0,0,0-.8-2.74A2.82,2.82,0,0,0,365.9,6.6Z"/><path class="cls-1" d="M379.93,5a7.55,7.55,0,0,1,1.5.13l-.26,1.76a6.14,6.14,0,0,0-1.37-.17A3.35,3.35,0,0,0,377.2,8,4.51,4.51,0,0,0,376.13,11v6.71h-1.89V5.24h1.56L376,7.56h.09a5.53,5.53,0,0,1,1.68-1.88A3.76,3.76,0,0,1,379.93,5Z"/><path class="cls-1" d="M392.31,17.74V9.66a3.27,3.27,0,0,0-.69-2.28,2.8,2.8,0,0,0-2.18-.76,3.61,3.61,0,0,0-2.87,1.06,5.36,5.36,0,0,0-.91,3.5v6.56h-1.89V5.24h1.53L385.61,7h.09a3.92,3.92,0,0,1,1.63-1.43,5.42,5.42,0,0,1,2.34-.5,4.79,4.79,0,0,1,3.4,1.08,4.65,4.65,0,0,1,1.14,3.49v8.15Z"/><path class="cls-1" d="M403.37,18A5.77,5.77,0,0,1,399,16.28a6.54,6.54,0,0,1-1.6-4.69,7.22,7.22,0,0,1,1.49-4.8,4.94,4.94,0,0,1,4-1.77,4.71,4.71,0,0,1,3.72,1.54A5.94,5.94,0,0,1,408,10.64v1.19h-8.61a5,5,0,0,0,1.11,3.34,3.84,3.84,0,0,0,3,1.14,10.07,10.07,0,0,0,4-.84v1.69a10.22,10.22,0,0,1-1.9.62A11,11,0,0,1,403.37,18ZM402.86,6.6a3.11,3.11,0,0,0-2.4,1,4.45,4.45,0,0,0-1,2.71h6.53a4.18,4.18,0,0,0-.8-2.74A2.82,2.82,0,0,0,402.86,6.6Z"/><path class="cls-1" d="M415.23,16.4a6.24,6.24,0,0,0,1-.07,7.25,7.25,0,0,0,.74-.15v1.44a3.69,3.69,0,0,1-.91.25A7.47,7.47,0,0,1,415,18c-2.41,0-3.62-1.28-3.62-3.82V6.71h-1.79V5.8L411.33,5l.8-2.67h1.09V5.24h3.63V6.71h-3.63v7.36a2.51,2.51,0,0,0,.54,1.73A1.85,1.85,0,0,0,415.23,16.4Z"/><path class="cls-1" d="M237.26,45.75l-2.08-5.3H228.5l-2.05,5.3h-2L231.08,29h1.63l6.56,16.73Zm-2.68-7-1.94-5.17c-.25-.65-.51-1.45-.77-2.4a22.25,22.25,0,0,1-.72,2.4l-2,5.17Z"/><path class="cls-1" d="M260.64,45.75h-2.21l-9.11-14h-.09c.12,1.64.18,3.14.18,4.51v9.47h-1.79V29.09h2.19L258.9,43H259c0-.21-.05-.87-.11-2s-.07-1.91-.05-2.39V29.09h1.81Z"/><path class="cls-1" d="M270.22,46a5.74,5.74,0,0,1-4.38-1.69,6.54,6.54,0,0,1-1.6-4.68,7.27,7.27,0,0,1,1.49-4.8,4.93,4.93,0,0,1,4-1.78,4.71,4.71,0,0,1,3.71,1.55,5.91,5.91,0,0,1,1.37,4.07v1.2H266.2a5,5,0,0,0,1.11,3.34,3.87,3.87,0,0,0,3,1.14,9.91,9.91,0,0,0,4-.85v1.69a9.66,9.66,0,0,1-1.89.62A10.38,10.38,0,0,1,270.22,46Zm-.52-11.36a3.08,3.08,0,0,0-2.4,1,4.49,4.49,0,0,0-1.05,2.71h6.53a4.16,4.16,0,0,0-.8-2.74A2.79,2.79,0,0,0,269.7,34.62Z"/><path class="cls-1" d="M282.07,44.42a6.15,6.15,0,0,0,1-.07,6.85,6.85,0,0,0,.74-.16v1.45a3.24,3.24,0,0,1-.91.24,6.09,6.09,0,0,1-1.07.1q-3.63,0-3.63-3.82V34.73h-1.79v-.91l1.79-.79.8-2.67h1.09v2.9h3.63v1.47h-3.63v7.35a2.55,2.55,0,0,0,.54,1.74A1.88,1.88,0,0,0,282.07,44.42Z"/><path class="cls-1" d="M296.48,45.75l-2.29-7.33c-.15-.44-.42-1.46-.81-3.05h-.09c-.31,1.33-.57,2.35-.8,3.08l-2.36,7.3h-2.19l-3.41-12.49h2c.8,3.14,1.42,5.53,1.84,7.17a28.9,28.9,0,0,1,.72,3.32h.09c.09-.44.22-1,.41-1.68s.34-1.24.48-1.64l2.29-7.17h2l2.24,7.17a26.55,26.55,0,0,1,.87,3.29h.09a12.6,12.6,0,0,1,.24-1.26c.13-.57.93-3.64,2.38-9.2h2l-3.45,12.49Z"/><path class="cls-1" d="M315.22,39.49a6.9,6.9,0,0,1-1.54,4.78A5.41,5.41,0,0,1,309.43,46a5.6,5.6,0,0,1-3-.79,5.17,5.17,0,0,1-2-2.25,7.9,7.9,0,0,1-.71-3.45,6.85,6.85,0,0,1,1.53-4.75A5.39,5.39,0,0,1,309.51,33a5.27,5.27,0,0,1,4.17,1.75A6.84,6.84,0,0,1,315.22,39.49Zm-9.52,0a5.91,5.91,0,0,0,1,3.65,3.32,3.32,0,0,0,2.81,1.26,3.38,3.38,0,0,0,2.83-1.25,5.92,5.92,0,0,0,1-3.66,5.8,5.8,0,0,0-1-3.61,3.39,3.39,0,0,0-2.85-1.24,3.33,3.33,0,0,0-2.8,1.22A5.85,5.85,0,0,0,305.7,39.49Z"/><path class="cls-1" d="M324.24,33a7.47,7.47,0,0,1,1.49.14l-.26,1.75a6.71,6.71,0,0,0-1.37-.17A3.33,3.33,0,0,0,321.51,36a4.5,4.5,0,0,0-1.08,3.07v6.7h-1.89V33.26h1.56l.22,2.31h.09a5.5,5.5,0,0,1,1.67-1.88A3.79,3.79,0,0,1,324.24,33Z"/><path class="cls-1" d="M329.94,39.36a20.62,20.62,0,0,1,1.49-1.83l4-4.27h2.24l-5.06,5.32,5.41,7.17h-2.29l-4.41-5.9-1.42,1.23v4.67h-1.87V28h1.87v9.4c0,.42,0,1.06-.09,1.94Z"/><path class="cls-1" d="M357.17,39.49a6.9,6.9,0,0,1-1.54,4.78A5.41,5.41,0,0,1,351.38,46a5.6,5.6,0,0,1-3-.79,5.17,5.17,0,0,1-2-2.25,7.9,7.9,0,0,1-.71-3.45,6.85,6.85,0,0,1,1.53-4.75A5.39,5.39,0,0,1,351.46,33a5.27,5.27,0,0,1,4.17,1.75A6.84,6.84,0,0,1,357.17,39.49Zm-9.52,0a5.91,5.91,0,0,0,1,3.65,3.32,3.32,0,0,0,2.81,1.26,3.38,3.38,0,0,0,2.83-1.25,5.92,5.92,0,0,0,1-3.66,5.8,5.8,0,0,0-1-3.61,3.39,3.39,0,0,0-2.85-1.24,3.33,3.33,0,0,0-2.8,1.22A5.85,5.85,0,0,0,347.65,39.49Z"/><path class="cls-1" d="M366.12,34.73h-3.18v11h-1.89v-11h-2.24v-.86l2.24-.68V32.5q0-4.61,4-4.61a8.18,8.18,0,0,1,2.33.4l-.49,1.52a6.2,6.2,0,0,0-1.87-.36,1.83,1.83,0,0,0-1.59.71,4,4,0,0,0-.51,2.29v.81h3.18Z"/><path class="cls-1" d="M387.77,45.75h-2.22l-9.1-14h-.09c.12,1.64.18,3.14.18,4.51v9.47h-1.79V29.09h2.19L386,43h.09c0-.21-.05-.87-.1-2s-.07-1.91-.06-2.39V29.09h1.82Z"/><path class="cls-1" d="M397.34,46A5.73,5.73,0,0,1,393,44.29a6.5,6.5,0,0,1-1.6-4.68,7.22,7.22,0,0,1,1.49-4.8,4.92,4.92,0,0,1,4-1.78,4.71,4.71,0,0,1,3.72,1.55,5.91,5.91,0,0,1,1.37,4.07v1.2h-8.61a5,5,0,0,0,1.11,3.34,3.84,3.84,0,0,0,3,1.14,9.94,9.94,0,0,0,4-.85v1.69a9.52,9.52,0,0,1-1.9.62A10.25,10.25,0,0,1,397.34,46Zm-.51-11.36a3.08,3.08,0,0,0-2.4,1,4.49,4.49,0,0,0-1.06,2.71h6.54a4.16,4.16,0,0,0-.8-2.74A2.79,2.79,0,0,0,396.83,34.62Z"/><path class="cls-1" d="M409.2,44.42a6.24,6.24,0,0,0,1-.07,7.44,7.44,0,0,0,.74-.16v1.45a3.34,3.34,0,0,1-.91.24,6.28,6.28,0,0,1-1.08.1q-3.62,0-3.62-3.82V34.73h-1.79v-.91L405.3,33l.8-2.67h1.09v2.9h3.63v1.47h-3.63v7.35a2.55,2.55,0,0,0,.54,1.74A1.85,1.85,0,0,0,409.2,44.42Z"/><path class="cls-1" d="M423.61,45.75l-2.3-7.33c-.14-.44-.41-1.46-.8-3.05h-.1c-.3,1.33-.57,2.35-.79,3.08l-2.36,7.3h-2.19l-3.41-12.49h2q1.22,4.71,1.84,7.17a27.5,27.5,0,0,1,.73,3.32h.09c.08-.44.22-1,.4-1.68s.35-1.24.49-1.64l2.29-7.17h2l2.24,7.17a24.62,24.62,0,0,1,.86,3.29h.09c0-.27.12-.69.25-1.26s.92-3.64,2.38-9.2h2l-3.46,12.49Z"/><path class="cls-1" d="M442.35,39.49a7,7,0,0,1-1.54,4.78A5.44,5.44,0,0,1,436.56,46a5.6,5.6,0,0,1-3-.79,5.19,5.19,0,0,1-2-2.25,7.9,7.9,0,0,1-.7-3.45,6.85,6.85,0,0,1,1.53-4.75A5.38,5.38,0,0,1,436.64,33a5.26,5.26,0,0,1,4.16,1.75A6.84,6.84,0,0,1,442.35,39.49Zm-9.52,0a5.91,5.91,0,0,0,1,3.65,3.29,3.29,0,0,0,2.81,1.26,3.35,3.35,0,0,0,2.82-1.25,5.92,5.92,0,0,0,1-3.66,5.8,5.8,0,0,0-1-3.61,3.86,3.86,0,0,0-5.65,0A5.85,5.85,0,0,0,432.83,39.49Z"/><path class="cls-1" d="M451.36,33a7.5,7.5,0,0,1,1.5.14l-.27,1.75a6.63,6.63,0,0,0-1.36-.17,3.35,3.35,0,0,0-2.6,1.23,4.54,4.54,0,0,0-1.07,3.07v6.7h-1.9V33.26h1.57l.21,2.31h.09a5.62,5.62,0,0,1,1.68-1.88A3.76,3.76,0,0,1,451.36,33Z"/><path class="cls-1" d="M457.06,39.36a23.15,23.15,0,0,1,1.5-1.83l4-4.27h2.25l-5.06,5.32,5.41,7.17H462.9l-4.41-5.9-1.43,1.23v4.67h-1.87V28h1.87v9.4c0,.42,0,1.06-.09,1.94Z"/><path class="cls-1" d="M475.51,42.34a3.14,3.14,0,0,1-1.3,2.69,6,6,0,0,1-3.65.95,7.88,7.88,0,0,1-3.88-.79V43.44a10,10,0,0,0,1.94.72,8.24,8.24,0,0,0,2,.26,4.61,4.61,0,0,0,2.28-.47,1.57,1.57,0,0,0,.79-1.45,1.55,1.55,0,0,0-.63-1.24A9.61,9.61,0,0,0,470.58,40a13.51,13.51,0,0,1-2.48-1.13A3.45,3.45,0,0,1,467,37.8a2.86,2.86,0,0,1-.36-1.47,2.81,2.81,0,0,1,1.24-2.42A5.87,5.87,0,0,1,471.3,33a10,10,0,0,1,3.95.82l-.68,1.54a9,9,0,0,0-3.41-.77,3.9,3.9,0,0,0-2,.42,1.3,1.3,0,0,0-.69,1.16,1.44,1.44,0,0,0,.26.86,2.52,2.52,0,0,0,.82.67,18.61,18.61,0,0,0,2.19.92,8.11,8.11,0,0,1,3,1.63A2.89,2.89,0,0,1,475.51,42.34Z"/><path class="cls-2" d="M51.17,330.19a11.15,11.15,0,0,0-6.31-10.3l9.37-51.46h.9a12.53,12.53,0,0,0,3.79-.59l11,27.71a16.14,16.14,0,0,0-7,13.46c0,8.71,6.48,15.83,14.41,15.83a14.09,14.09,0,0,0,13-9.3L102,319.3c0,.4-.18.79-.18,1.19a8,8,0,0,0,2,5.34,6.68,6.68,0,0,0,10.09.4,8.46,8.46,0,0,0,.18-11.09,6.3,6.3,0,0,0-5-2.37,6.09,6.09,0,0,0-5,2.18,7.56,7.56,0,0,0-1.62,2.57L90.81,314a21.77,21.77,0,0,0,.72-4.75,16.54,16.54,0,0,0-4.15-11.09l3.61-4a9.21,9.21,0,0,0,13-.39,11.31,11.31,0,0,0,3.06-7.92,10.71,10.71,0,0,0-2.7-7.32,10.58,10.58,0,0,0-3.79-2.77l2.53-16.63,28.46,2.18c.54,5.34,4.69,9.5,9.73,9.5,5.41,0,9.73-4.75,9.73-10.69s-4.32-10.69-9.73-10.69a10.07,10.07,0,0,0-9.55,8.12l-28.1-2.18,4.32-26.52a7.42,7.42,0,0,0,4.33-2,8,8,0,0,0,2.16-5.74,10.12,10.12,0,0,0-1.26-4.55l13-13.06a6.8,6.8,0,0,0,4.5,2c4,0,7.21-3.57,7.21-7.92s-3.24-7.92-7.21-7.92-7.2,3.57-7.2,7.92a9.42,9.42,0,0,0,1.26,4.55l-13,13.06a6.61,6.61,0,0,0-9.18,0L84.86,203.12a15.58,15.58,0,0,0-2.34-15.44,12.55,12.55,0,0,0-1.62-1.58l4.32-7.32a5.52,5.52,0,0,0,3.06.79c4,0,7.21-3.56,7.21-7.92s-3.24-7.91-7.21-7.91-7.2,3.56-7.2,7.91a8.41,8.41,0,0,0,2.52,5.94l-4.33,7.32a12.22,12.22,0,0,0-15.13,2,9.73,9.73,0,0,0-1.26,1.59l-8.11-6.34a12.72,12.72,0,0,0,.9-4.55c0-5.94-4.32-10.89-9.91-10.89s-9.91,4.75-9.91,10.89,4.33,10.89,9.91,10.89a9.27,9.27,0,0,0,6.67-3l8.29,6.73a16.4,16.4,0,0,0-.9,5.34,14.21,14.21,0,0,0,1.62,6.73L40.9,219.15a6.53,6.53,0,0,0-5.41-2.77c-4,0-7.2,3.56-7.2,7.92s3.24,7.92,7.2,7.92,7.21-3.57,7.21-7.92a10.12,10.12,0,0,0-.72-3.37l20.9-14.84c.36.4.54.79.9,1.19a12,12,0,0,0,18.2.59,8.29,8.29,0,0,0,1.08-1.38l17.65,11.87a6.59,6.59,0,0,0-.54,2.57,8,8,0,0,0,2,5.35,8.69,8.69,0,0,0,2.16,1.78l-4.15,26.52-31.35-2a16.19,16.19,0,0,0-2.88-8.31l3.79-3.76a6.83,6.83,0,0,0,4.68,2c4,0,7.21-3.57,7.21-7.92s-3.25-7.92-7.21-7.92-7.21,3.57-7.21,7.92a10.08,10.08,0,0,0,1.26,4.55l-3.78,3.76a13.16,13.16,0,0,0-9.55-4.15c-7.39,0-13.33,6.33-13.69,14.25l-22,.59c-.54-5.34-4.69-9.5-9.73-9.5-5.41,0-9.73,4.75-9.73,10.69s4.32,10.69,9.73,10.69c5.22,0,9.37-4.36,9.73-10.1l22-.59a15.06,15.06,0,0,0,9.19,12.86L41.26,319.1h-.18c-5.59,0-10.09,4.95-10.09,11.09s4.5,11.08,10.09,11.08S51.17,336.12,51.17,330.19Zm60.53-12.27a4.34,4.34,0,0,1,.91,2.57,3.73,3.73,0,0,1-1.09,2.77,3.42,3.42,0,0,1-5-.2,4.29,4.29,0,0,1,.18-5.54,3.2,3.2,0,0,1,2.52-1A3.32,3.32,0,0,1,111.7,317.92Zm-27-146.07a3.62,3.62,0,1,1,3.6,4A3.8,3.8,0,0,1,84.68,171.85Zm-44.86,5.94c0-3.76,2.88-6.93,6.3-6.93s6.31,3.17,6.31,6.93-2.88,6.92-6.31,6.92S39.82,181.55,39.82,177.79Zm-4.51,50.27a4,4,0,0,1,0-7.92,4,4,0,0,1,0,7.92Zm31-23.55a10.84,10.84,0,0,1-2.52-6.93,11.38,11.38,0,0,1,2.88-7.52,8.93,8.93,0,0,1,13.15.39,10.79,10.79,0,0,1,2.53,6.93,11.33,11.33,0,0,1-2.89,7.52A8.63,8.63,0,0,1,66.3,204.51Zm60.9-6.93a3.62,3.62,0,1,1,3.6,4A3.94,3.94,0,0,1,127.2,197.58ZM104.68,223.9a4.29,4.29,0,0,1,.18-5.54,3.42,3.42,0,0,1,5,.2,4.4,4.4,0,0,1,.9,2.57,3.76,3.76,0,0,1-1.08,2.77A3.4,3.4,0,0,1,104.68,223.9ZM88.1,309c0,6.53-4.86,11.87-10.81,11.87S66.48,315.54,66.48,309s4.87-11.88,10.81-11.88S88.1,302.48,88.1,309Zm13.7-27.91a7.14,7.14,0,0,1,1.62,4.75,6.74,6.74,0,0,1-2,4.95,5.87,5.87,0,0,1-8.83-.4A7.11,7.11,0,0,1,91,285.65a6.7,6.7,0,0,1,2-4.94A5.86,5.86,0,0,1,101.8,281.1ZM97.11,275a8.77,8.77,0,0,0-6.49,3,11.27,11.27,0,0,0-3.06,7.91,11.77,11.77,0,0,0,2.34,6.93l-3.6,4a13.71,13.71,0,0,0-8.83-3.37,14.81,14.81,0,0,0-4.14.6l-11-27.71a15,15,0,0,0,6.3-9.9l31.17,2.38Zm44.5-22c3.43,0,6.13,3,6.13,6.73s-2.7,6.73-6.13,6.73-6.12-3-6.12-6.73S138.19,253,141.61,253Zm-70.8-18.41a3.62,3.62,0,1,1,3.6,4A3.8,3.8,0,0,1,70.81,234.59ZM9.73,261.51c-3.42,0-6.13-3-6.13-6.73s2.71-6.73,6.13-6.73,6.12,3,6.12,6.73S13.15,261.51,9.73,261.51Zm35.49-7.92c0-6.13,4.51-11.08,10.09-11.08s10.09,5,10.09,11.08a10.57,10.57,0,0,1-10.27,10.89C49.55,264.48,45.22,259.53,45.22,253.59Zm-10.45,76.6c0-4,2.89-7.13,6.49-7.13s6.48,3.17,6.48,7.13-2.88,7.12-6.48,7.12S34.77,334,34.77,330.19Z"/><path class="cls-2" d="M237.53,515.83a11.13,11.13,0,0,0-10.29,6.31l-51.46-9.37v-.9a12.85,12.85,0,0,0-.59-3.79l27.71-11a16.14,16.14,0,0,0,13.46,7c8.7,0,15.83-6.48,15.83-14.41a14.09,14.09,0,0,0-9.3-13L226.65,465c.39,0,.79.18,1.19.18a8.08,8.08,0,0,0,5.34-2,6.69,6.69,0,0,0,.4-10.09,8.46,8.46,0,0,0-11.09-.18,6.3,6.3,0,0,0-2.37,5.05,6.11,6.11,0,0,0,2.17,5,7.7,7.7,0,0,0,2.58,1.62l-3.57,11.53a21.59,21.59,0,0,0-4.75-.72,16.54,16.54,0,0,0-11.08,4.15l-4-3.61a9.21,9.21,0,0,0-.39-13A11.31,11.31,0,0,0,193.2,460a10.71,10.71,0,0,0-7.32,2.7,10.58,10.58,0,0,0-2.77,3.79l-16.63-2.53,2.18-28.46c5.34-.54,9.5-4.69,9.5-9.73,0-5.41-4.75-9.73-10.69-9.73s-10.69,4.32-10.69,9.73a10.07,10.07,0,0,0,8.12,9.55l-2.18,28.1-26.52-4.32a7.42,7.42,0,0,0-2-4.33,8,8,0,0,0-5.74-2.16,10.08,10.08,0,0,0-4.55,1.26l-13.07-13a6.76,6.76,0,0,0,2-4.5c0-4-3.56-7.21-7.91-7.21S97,432.41,97,436.38s3.56,7.2,7.92,7.2a9.45,9.45,0,0,0,4.55-1.26l13.06,13a6.61,6.61,0,0,0,0,9.18l-12.07,17.66A15.58,15.58,0,0,0,95,484.48a11.92,11.92,0,0,0-1.58,1.62l-7.33-4.32a5.44,5.44,0,0,0,.8-3.06c0-4-3.57-7.21-7.92-7.21s-7.92,3.24-7.92,7.21,3.57,7.2,7.92,7.2a8.43,8.43,0,0,0,5.94-2.52l7.32,4.33a12.21,12.21,0,0,0,2,15.13,9.68,9.68,0,0,0,1.58,1.26l-6.33,8.11a12.76,12.76,0,0,0-4.55-.9c-5.94,0-10.89,4.32-10.89,9.91s4.75,9.91,10.89,9.91,10.88-4.33,10.88-9.91a9.24,9.24,0,0,0-3-6.67l6.73-8.29a16.51,16.51,0,0,0,5.35.9,14.21,14.21,0,0,0,6.73-1.62L126.5,526.1a6.53,6.53,0,0,0-2.77,5.41c0,4,3.56,7.2,7.92,7.2s7.91-3.24,7.91-7.2-3.56-7.21-7.91-7.21a10.12,10.12,0,0,0-3.37.72l-14.84-20.9c.39-.36.79-.54,1.19-.9a12.06,12.06,0,0,0,.59-18.2,8.4,8.4,0,0,0-1.39-1.08l11.88-17.65a6.59,6.59,0,0,0,2.57.54,8,8,0,0,0,5.35-2,8.69,8.69,0,0,0,1.78-2.16l26.52,4.15-2,31.35a16.19,16.19,0,0,0-8.31,2.88l-3.76-3.79a6.87,6.87,0,0,0,2-4.68c0-4-3.56-7.21-7.91-7.21s-7.92,3.25-7.92,7.21,3.56,7.21,7.92,7.21a10.12,10.12,0,0,0,4.55-1.26l3.76,3.78a13.17,13.17,0,0,0-4.16,9.55c0,7.39,6.34,13.33,14.25,13.69l.6,22c-5.35.54-9.5,4.69-9.5,9.73,0,5.41,4.75,9.73,10.69,9.73s10.68-4.32,10.68-9.73c0-5.22-4.35-9.37-10.09-9.73l-.59-22A15.07,15.07,0,0,0,175,516.37l51.46,9.37v.18c0,5.59,5,10.09,11.08,10.09s11.09-4.5,11.09-10.09S243.47,515.83,237.53,515.83ZM225.26,455.3a4.37,4.37,0,0,1,2.58-.91,3.75,3.75,0,0,1,2.77,1.09,3.42,3.42,0,0,1-.2,5,4.29,4.29,0,0,1-5.54-.18,3.2,3.2,0,0,1-1-2.52A3.34,3.34,0,0,1,225.26,455.3Zm-146.06,27a3.62,3.62,0,1,1,4-3.6A3.8,3.8,0,0,1,79.2,482.32Zm5.94,44.86c-3.77,0-6.93-2.88-6.93-6.3s3.16-6.31,6.93-6.31,6.92,2.88,6.92,6.31S88.9,527.18,85.14,527.18Zm50.27,4.51a4,4,0,1,1-4-3.61A3.8,3.8,0,0,1,135.41,531.69Zm-23.56-31a10.79,10.79,0,0,1-6.92,2.52,11.38,11.38,0,0,1-7.52-2.88,8.92,8.92,0,0,1,.39-13.15,10.79,10.79,0,0,1,6.93-2.53,11.33,11.33,0,0,1,7.52,2.89A8.62,8.62,0,0,1,111.85,500.7Zm-6.92-60.9a3.62,3.62,0,1,1,4-3.6A3.94,3.94,0,0,1,104.93,439.8Zm26.32,22.52a4.29,4.29,0,0,1-5.54-.18,3.41,3.41,0,0,1,.2-5,4.4,4.4,0,0,1,2.57-.9,3.76,3.76,0,0,1,2.77,1.08A3.41,3.41,0,0,1,131.25,462.32Zm85.11,16.58c6.53,0,11.87,4.86,11.87,10.81s-5.34,10.81-11.87,10.81-11.88-4.87-11.88-10.81S209.82,478.9,216.36,478.9Zm-27.91-13.7a7.14,7.14,0,0,1,4.75-1.62,6.74,6.74,0,0,1,5,2,5.88,5.88,0,0,1-.4,8.83A7.14,7.14,0,0,1,193,476a6.74,6.74,0,0,1-4.95-2A5.87,5.87,0,0,1,188.45,465.2Zm-6.14,4.69a8.77,8.77,0,0,0,3,6.49,11.31,11.31,0,0,0,7.92,3.06,11.77,11.77,0,0,0,6.93-2.34l4,3.6a13.71,13.71,0,0,0-3.37,8.83,15.17,15.17,0,0,0,.59,4.14l-27.7,11a15,15,0,0,0-9.9-6.3l2.37-31.17Zm-22-44.5c0-3.43,3-6.13,6.73-6.13s6.73,2.7,6.73,6.13-3,6.12-6.73,6.12S160.34,428.81,160.34,425.39Zm-18.4,70.8a3.62,3.62,0,1,1,4-3.6A3.8,3.8,0,0,1,141.94,496.19Zm26.92,61.08c0,3.42-3,6.13-6.73,6.13s-6.73-2.71-6.73-6.13,3-6.12,6.73-6.12S168.86,553.85,168.86,557.27Zm-7.92-35.49c-6.14,0-11.09-4.51-11.09-10.09s5-10.09,11.09-10.09a10.56,10.56,0,0,1,10.88,10.27C171.82,517.45,166.88,521.78,160.94,521.78Zm76.59,10.45c-3.95,0-7.12-2.89-7.12-6.49s3.17-6.48,7.12-6.48,7.13,2.88,7.13,6.48S241.29,532.23,237.53,532.23Z"/><path class="cls-2" d="M689.92,386.05a11.16,11.16,0,0,0-10.3,6.3L628.17,383v-.9a12.43,12.43,0,0,0-.6-3.78l27.71-11a16.17,16.17,0,0,0,13.46,7c8.71,0,15.83-6.49,15.83-14.42a14.1,14.1,0,0,0-9.3-13L679,335.24c.4,0,.79.18,1.19.18a8,8,0,0,0,5.34-2,6.69,6.69,0,0,0,.4-10.09,8.46,8.46,0,0,0-11.09-.18,6.28,6.28,0,0,0-2.37,5,6.09,6.09,0,0,0,2.18,5.05,7.56,7.56,0,0,0,2.57,1.62l-3.56,11.53a21.77,21.77,0,0,0-4.75-.72,16.54,16.54,0,0,0-11.09,4.14l-4-3.6a9.21,9.21,0,0,0-.39-13,11.31,11.31,0,0,0-7.92-3.06,10.86,10.86,0,0,0-10.09,6.48l-16.63-2.52L621,305.69c5.34-.54,9.5-4.68,9.5-9.73,0-5.4-4.75-9.73-10.69-9.73s-10.69,4.33-10.69,9.73a10.06,10.06,0,0,0,8.12,9.55l-2.18,28.11-26.52-4.33a7.36,7.36,0,0,0-2-4.32,8,8,0,0,0-5.74-2.16,10.12,10.12,0,0,0-4.55,1.26l-13.06-13a6.83,6.83,0,0,0,2-4.51c0-4-3.57-7.2-7.92-7.2s-7.92,3.24-7.92,7.2,3.57,7.21,7.92,7.21a9.42,9.42,0,0,0,4.55-1.26l13.06,13a6.63,6.63,0,0,0,0,9.19l-12.07,17.66a15.51,15.51,0,0,0-15.44,2.34,12.55,12.55,0,0,0-1.58,1.62L538.51,352a5.57,5.57,0,0,0,.79-3.07c0-4-3.56-7.2-7.92-7.2s-7.91,3.24-7.91,7.2,3.56,7.21,7.91,7.21a8.41,8.41,0,0,0,5.94-2.52l7.32,4.32a12.23,12.23,0,0,0,2,15.14,9.73,9.73,0,0,0,1.59,1.26l-6.34,8.1a12.72,12.72,0,0,0-4.55-.9c-5.94,0-10.89,4.33-10.89,9.91s4.75,9.91,10.89,9.91,10.89-4.32,10.89-9.91a9.27,9.27,0,0,0-3-6.66L552,376.5a16.4,16.4,0,0,0,5.34.9,14.21,14.21,0,0,0,6.73-1.62l14.84,20.54a6.53,6.53,0,0,0-2.77,5.4c0,4,3.56,7.21,7.92,7.21s7.92-3.24,7.92-7.21-3.57-7.2-7.92-7.2a10.12,10.12,0,0,0-3.37.72l-14.84-20.9c.4-.36.79-.54,1.19-.9a12,12,0,0,0,.59-18.2,8.29,8.29,0,0,0-1.38-1.08l11.87-17.66a6.59,6.59,0,0,0,2.57.54,8.08,8.08,0,0,0,5.35-2,8.69,8.69,0,0,0,1.78-2.16L614.31,337l-2,31.35a16.19,16.19,0,0,0-8.31,2.88l-3.76-3.78a6.83,6.83,0,0,0,2-4.68c0-4-3.56-7.21-7.92-7.21s-7.92,3.24-7.92,7.21,3.57,7.2,7.92,7.2a10.08,10.08,0,0,0,4.55-1.26l3.76,3.78a13.19,13.19,0,0,0-4.15,9.55c0,7.39,6.33,13.34,14.25,13.7l.59,22c-5.34.54-9.5,4.68-9.5,9.73,0,5.4,4.75,9.73,10.69,9.73s10.69-4.33,10.69-9.73c0-5.23-4.36-9.37-10.1-9.73l-.59-22a15.07,15.07,0,0,0,12.86-9.19L678.83,396v.18c0,5.58,4.95,10.09,11.09,10.09S701,401.72,701,396.14,695.85,386.05,689.92,386.05Zm-12.27-60.54a4.4,4.4,0,0,1,2.57-.9,3.76,3.76,0,0,1,2.77,1.08,3.43,3.43,0,0,1-.2,5.05,4.29,4.29,0,0,1-5.54-.18,3.23,3.23,0,0,1-1-2.53A3.32,3.32,0,0,1,677.65,325.51Zm-146.07,27a3.62,3.62,0,1,1,4-3.61A3.81,3.81,0,0,1,531.58,352.54Zm5.94,44.86c-3.76,0-6.93-2.88-6.93-6.31s3.17-6.3,6.93-6.3,6.93,2.88,6.93,6.3S541.28,397.4,537.52,397.4Zm50.27,4.5a4,4,0,1,1-4-3.6A3.81,3.81,0,0,1,587.79,401.9Zm-23.55-31a10.85,10.85,0,0,1-6.93,2.53,11.39,11.39,0,0,1-7.52-2.89,8.93,8.93,0,0,1,.39-13.15,10.84,10.84,0,0,1,6.93-2.52,11.38,11.38,0,0,1,7.52,2.88A8.63,8.63,0,0,1,564.24,370.91ZM557.31,310a3.62,3.62,0,1,1,4-3.61A4,4,0,0,1,557.31,310Zm26.32,22.52a4.29,4.29,0,0,1-5.54-.18,3.43,3.43,0,0,1,.2-5.05,4.4,4.4,0,0,1,2.57-.9,3.76,3.76,0,0,1,2.77,1.08A3.41,3.41,0,0,1,583.63,332.54Zm85.11,16.57c6.53,0,11.87,4.87,11.87,10.81s-5.34,10.81-11.87,10.81-11.88-4.86-11.88-10.81S662.21,349.11,668.74,349.11Zm-27.91-13.69a7.14,7.14,0,0,1,4.75-1.62,6.74,6.74,0,0,1,4.95,2,5.87,5.87,0,0,1-.4,8.83,7.11,7.11,0,0,1-4.75,1.62,6.72,6.72,0,0,1-4.94-2A5.86,5.86,0,0,1,640.83,335.42Zm-6.13,4.68a8.74,8.74,0,0,0,3,6.49,11.27,11.27,0,0,0,7.91,3.06,11.75,11.75,0,0,0,6.93-2.34l4,3.6a13.76,13.76,0,0,0-3.37,8.83,14.88,14.88,0,0,0,.6,4.15l-27.71,11a15,15,0,0,0-9.9-6.31l2.38-31.17Zm-22-44.5c0-3.42,3-6.12,6.73-6.12s6.73,2.7,6.73,6.12-3,6.13-6.73,6.13S612.73,299,612.73,295.6Zm-18.41,70.81a3.62,3.62,0,1,1,4-3.6A3.8,3.8,0,0,1,594.32,366.41Zm26.92,61.08c0,3.42-3,6.12-6.73,6.12s-6.73-2.7-6.73-6.12,3-6.13,6.73-6.13S621.24,424.06,621.24,427.49ZM613.32,392c-6.13,0-11.08-4.5-11.08-10.09s5-10.09,11.08-10.09a10.57,10.57,0,0,1,10.89,10.27C624.21,387.67,619.26,392,613.32,392Zm76.6,10.45c-4,0-7.13-2.88-7.13-6.48s3.17-6.49,7.13-6.49S697,392.35,697,396,693.68,402.44,689.92,402.44Z"/><path class="cls-2" d="M546.68,491.3a11.16,11.16,0,0,0-8.67,8.4l-52.26,2.05-.2-.87a12.45,12.45,0,0,0-1.4-3.57l24.65-16.76a16.13,16.13,0,0,0,14.67,3.93c8.5-1.89,14-9.77,12.31-17.51a14.1,14.1,0,0,0-11.9-10.64L525,444.08c.39-.08.81,0,1.2-.08a8,8,0,0,0,4.78-3.1,6.68,6.68,0,0,0-1.81-9.93,8.44,8.44,0,0,0-10.85,2.24,6.28,6.28,0,0,0-1.22,5.44,6.12,6.12,0,0,0,3.22,4.45,7.68,7.68,0,0,0,2.86,1l-1,12a21.82,21.82,0,0,0-4.8.33,16.49,16.49,0,0,0-9.91,6.46l-4.65-2.66a9.2,9.2,0,0,0-3.21-12.57,11.25,11.25,0,0,0-8.39-1.27,10.68,10.68,0,0,0-6.56,4.23,10.53,10.53,0,0,0-1.88,4.3L466,456.12,462,427.87c5.1-1.7,8.25-6.64,7.16-11.57-1.18-5.27-6.76-8.46-12.55-7.17s-9.49,6.55-8.32,11.82a10.06,10.06,0,0,0,10,7.56l4,27.9L435.43,458a7.37,7.37,0,0,0-2.88-3.79,7.94,7.94,0,0,0-6.07-.86,10,10,0,0,0-4.17,2.22l-15.57-9.82a6.82,6.82,0,0,0,.95-4.83c-.86-3.87-5.05-6.26-9.29-5.31s-7,4.89-6.16,8.76,5,6.26,9.29,5.31a9.48,9.48,0,0,0,4.17-2.22l15.57,9.82a6.6,6.6,0,0,0,2,9l-7.94,19.86a15.5,15.5,0,0,0-5.83.2,15.34,15.34,0,0,0-8.73,5.45,12.18,12.18,0,0,0-1.19,1.93L391.49,491a5.48,5.48,0,0,0,.11-3.16c-.86-3.87-5.05-6.26-9.3-5.31s-7,4.89-6.15,8.76,5,6.25,9.29,5.31a8.42,8.42,0,0,0,5.25-3.76l8.09,2.63A12.21,12.21,0,0,0,404,509.83a10.13,10.13,0,0,0,1.82.89L401.4,520a12.47,12.47,0,0,0-4.63.11c-5.8,1.29-9.69,6.59-8.47,12s6.79,8.64,12.78,7.3,9.68-6.59,8.47-12a9.3,9.3,0,0,0-4.35-5.86L410,512a16.52,16.52,0,0,0,5.41-.29,14.18,14.18,0,0,0,6.22-3l19,16.81a6.53,6.53,0,0,0-1.53,5.88c.86,3.87,5.05,6.26,9.29,5.31s7-4.89,6.16-8.75-5-6.26-9.29-5.32a10.1,10.1,0,0,0-3.13,1.44l-19-17.17c.31-.44.66-.7,1-1.14a12,12,0,0,0-3.38-17.89,8.77,8.77,0,0,0-1.59-.75l7.75-19.82a6.64,6.64,0,0,0,2.63,0,8,8,0,0,0,4.78-3.1,8.39,8.39,0,0,0,1.27-2.49l26.79-1.73,4.89,31a16.16,16.16,0,0,0-7.49,4.62l-4.49-2.88a6.87,6.87,0,0,0,.91-5c-.86-3.87-5.05-6.26-9.3-5.31s-7,4.89-6.16,8.76,5.05,6.26,9.3,5.31a10.22,10.22,0,0,0,4.17-2.22l4.49,2.87a13.2,13.2,0,0,0-2,10.23c1.61,7.21,9.09,11.63,16.89,10.26l5.37,21.32c-5.1,1.69-8.26,6.64-7.16,11.57,1.18,5.27,6.76,8.46,12.55,7.17s9.49-6.55,8.31-11.82c-1.13-5.1-6.28-8.2-12-7.3l-5.36-21.33a15.08,15.08,0,0,0,10.56-11.77L538,503.39l0,.17c1.22,5.46,7,8.77,13,7.44s9.83-6.81,8.62-12.26S552.48,490,546.68,491.3Zm-25.15-56.41a4.46,4.46,0,0,1,2.32-1.44,3.77,3.77,0,0,1,2.94.45,3.43,3.43,0,0,1,.9,5,4.31,4.31,0,0,1-5.45,1,3.17,3.17,0,0,1-1.51-2.25A3.34,3.34,0,0,1,521.53,434.89ZM384.85,493.06a3.62,3.62,0,1,1,3.08-4.38A3.81,3.81,0,0,1,384.85,493.06Zm15.56,42.49c-3.67.82-7.39-1.3-8.13-4.65s1.71-6.84,5.38-7.66,7.39,1.31,8.14,4.65S404.08,534.73,400.41,535.55Zm50-6.54a4,4,0,1,1-4.65-2.66A3.8,3.8,0,0,1,450.46,529Zm-29.74-25.12a10.84,10.84,0,0,1-6.21,4,11.39,11.39,0,0,1-8-1.18,8.92,8.92,0,0,1-2.47-12.92,10.79,10.79,0,0,1,6.21-4,11.33,11.33,0,0,1,8,1.17A8.63,8.63,0,0,1,420.72,503.89Zm-20-57.93a3.62,3.62,0,1,1,3.08-4.38A3.94,3.94,0,0,1,400.71,446Zm30.59,16.25a4.31,4.31,0,0,1-5.45,1,3.43,3.43,0,0,1-.9-5,4.43,4.43,0,0,1,2.31-1.44,3.8,3.8,0,0,1,2.94.45A3.42,3.42,0,0,1,431.3,462.21ZM518,459.86c6.37-1.42,12.65,2.17,13.94,8s-2.86,11.71-9.24,13.14-12.65-2.17-13.94-8S511.6,461.29,518,459.86Zm-30.22-7.29A7.08,7.08,0,0,1,492,450a6.74,6.74,0,0,1,5.26.85,5.88,5.88,0,0,1,1.54,8.71,7.14,7.14,0,0,1-4.29,2.61,6.75,6.75,0,0,1-5.26-.85A5.87,5.87,0,0,1,487.76,452.57Zm-5,5.91a8.7,8.7,0,0,0,4.31,5.68,11.24,11.24,0,0,0,8.39,1.27,11.7,11.7,0,0,0,6.25-3.79l4.65,2.65a13.72,13.72,0,0,0-1.36,9.35,14.83,14.83,0,0,0,1.48,3.92l-24.65,16.75a15,15,0,0,0-11-4l-4.47-30.94Zm-31.13-38.65c-.74-3.34,1.57-6.63,5.24-7.45s7.15,1.18,7.9,4.52-1.57,6.62-5.24,7.44S452.41,423.17,451.66,419.83Zm-2.55,73.11a3.62,3.62,0,1,1,3.08-4.38A3.8,3.8,0,0,1,449.11,492.94Zm39.56,53.76c.75,3.34-1.56,6.62-5.23,7.44s-7.16-1.17-7.91-4.51,1.57-6.63,5.24-7.45S487.93,543.36,488.67,546.7Zm-15.45-32.92c-6,1.33-11.8-2-13-7.44s2.63-10.92,8.62-12.26a10.58,10.58,0,0,1,12.86,7.66C482.9,507.19,479,512.49,473.22,513.78Zm77-6.47c-3.86.86-7.58-1.27-8.36-4.78s1.68-7,5.54-7.88,7.58,1.26,8.37,4.78S553.92,506.49,550.25,507.31Z"/><path class="cls-2" d="M361.33,188.15a12.6,12.6,0,0,0-9.8,9.49L292.46,200l-.22-1a14.22,14.22,0,0,0-1.59-4L318.52,176a18.25,18.25,0,0,0,16.57,4.44C344.7,178.3,351,169.39,349,160.65a16,16,0,0,0-13.45-12l1.27-13.84c.43-.1.92,0,1.35-.09a9.09,9.09,0,0,0,5.41-3.51,7.55,7.55,0,0,0-2-11.22,9.54,9.54,0,0,0-12.27,2.52,7.16,7.16,0,0,0-1.38,6.15,6.91,6.91,0,0,0,3.65,5,8.49,8.49,0,0,0,3.23,1.16l-1.09,13.6a24.35,24.35,0,0,0-5.42.37,18.68,18.68,0,0,0-11.21,7.3l-5.25-3a10.42,10.42,0,0,0-3.63-14.22,12.76,12.76,0,0,0-9.48-1.43,12.24,12.24,0,0,0-9.54,9.64l-19,1.31-4.61-31.94c5.77-1.91,9.33-7.51,8.09-13.07-1.33-6-7.63-9.57-14.18-8.11s-10.73,7.4-9.4,13.37a11.36,11.36,0,0,0,11.3,8.53l4.51,31.55-30.32,1.75a8.28,8.28,0,0,0-3.24-4.28,9.09,9.09,0,0,0-6.87-1,11.45,11.45,0,0,0-4.71,2.51l-17.6-11.09a7.66,7.66,0,0,0,1.07-5.46c-1-4.37-5.7-7.07-10.5-6s-7.94,5.52-7,9.9,5.7,7.07,10.5,6a10.7,10.7,0,0,0,4.71-2.51l17.61,11.1a7.46,7.46,0,0,0,2.26,10.13l-9,22.45a17.58,17.58,0,0,0-16.45,6.38,13,13,0,0,0-1.35,2.18l-9.14-3a6.28,6.28,0,0,0,.12-3.57c-1-4.37-5.71-7.08-10.51-6s-7.94,5.52-7,9.89,5.7,7.08,10.51,6a9.5,9.5,0,0,0,5.92-4.25l9.15,3a13.8,13.8,0,0,0,5.9,16.21,11.07,11.07,0,0,0,2.06,1l-5,10.5a14.54,14.54,0,0,0-5.25.13c-6.55,1.46-10.94,7.45-9.57,13.61s7.68,9.76,14.45,8.25,11-7.44,9.57-13.61a10.49,10.49,0,0,0-4.91-6.62l5.38-10.8a18.43,18.43,0,0,0,6.12-.32,15.91,15.91,0,0,0,7-3.44l21.43,19a7.41,7.41,0,0,0-1.73,6.65c1,4.37,5.71,7.07,10.51,6s7.94-5.52,7-9.9-5.7-7.07-10.51-6a11.32,11.32,0,0,0-3.53,1.62l-21.52-19.4c.35-.5.74-.79,1.09-1.29a13.61,13.61,0,0,0-3.82-20.22,9.66,9.66,0,0,0-1.79-.85l8.75-22.4a7.4,7.4,0,0,0,3,0,9,9,0,0,0,5.41-3.5,9.67,9.67,0,0,0,1.44-2.82l30.27-1.95,5.53,35.07a18.34,18.34,0,0,0-8.46,5.22l-5.08-3.25a7.74,7.74,0,0,0,1-5.65c-1-4.37-5.7-7.07-10.5-6s-7.94,5.52-7,9.9,5.71,7.07,10.51,6a11.45,11.45,0,0,0,4.71-2.51l5.08,3.25a14.81,14.81,0,0,0-2.23,11.55c1.81,8.15,10.26,13.15,19.08,11.6L284.64,242c-5.77,1.91-9.33,7.5-8.09,13.07,1.33,6,7.63,9.56,14.18,8.1s10.73-7.4,9.4-13.36c-1.28-5.77-7.11-9.27-13.53-8.25l-6.06-24.11a17,17,0,0,0,11.93-13.3l59.08-2.32,0,.2c1.37,6.16,7.94,9.91,14.71,8.4s11.12-7.69,9.74-13.85S367.89,186.69,361.33,188.15Zm-28.42-63.76a5,5,0,0,1,2.61-1.63,4.29,4.29,0,0,1,3.33.51,3.87,3.87,0,0,1,1,5.61,4.85,4.85,0,0,1-6.16,1.17,3.61,3.61,0,0,1-1.71-2.54A3.78,3.78,0,0,1,332.91,124.39ZM178.42,190.13a4.09,4.09,0,1,1,3.48-4.95A4.3,4.3,0,0,1,178.42,190.13Zm17.58,48c-4.15.93-8.35-1.47-9.19-5.25s1.94-7.74,6.09-8.66,8.35,1.48,9.19,5.25S200.15,237.24,196,238.16Zm56.57-7.39a4.49,4.49,0,1,1-5.25-3A4.29,4.29,0,0,1,252.57,230.77ZM219,202.37a12.17,12.17,0,0,1-7,4.49,12.85,12.85,0,0,1-9-1.33,10.09,10.09,0,0,1-2.8-14.61,12.2,12.2,0,0,1,7-4.48,12.77,12.77,0,0,1,9,1.33A9.74,9.74,0,0,1,219,202.37ZM196.34,136.9a4.09,4.09,0,1,1,3.48-5A4.46,4.46,0,0,1,196.34,136.9Zm34.58,18.37a4.85,4.85,0,0,1-6.16,1.16,3.86,3.86,0,0,1-1-5.61,4.93,4.93,0,0,1,2.62-1.63,4.26,4.26,0,0,1,3.32.51A3.86,3.86,0,0,1,230.92,155.27Zm98-2.65c7.2-1.61,14.29,2.44,15.76,9s-3.24,13.24-10.45,14.85-14.29-2.45-15.75-9S321.68,154.22,328.89,152.62Zm-34.16-8.25a8.11,8.11,0,0,1,4.84-3,7.6,7.6,0,0,1,5.95,1,6.63,6.63,0,0,1,1.73,9.83,8,8,0,0,1-4.84,3,7.58,7.58,0,0,1-5.94-1A6.63,6.63,0,0,1,294.73,144.37Zm-5.61,6.68a9.85,9.85,0,0,0,4.87,6.43,12.76,12.76,0,0,0,9.48,1.43,13.26,13.26,0,0,0,7.07-4.29l5.25,3a15.57,15.57,0,0,0-1.54,10.57,17.12,17.12,0,0,0,1.68,4.42l-27.87,18.94A16.92,16.92,0,0,0,275.59,187l-5-35Zm-35.19-43.69c-.84-3.77,1.77-7.49,5.92-8.41s8.09,1.33,8.93,5.1-1.77,7.49-5.92,8.41S254.77,111.14,253.93,107.36ZM251,190a4.09,4.09,0,1,1,3.48-4.95A4.29,4.29,0,0,1,251,190Zm44.72,60.76c.85,3.78-1.76,7.49-5.91,8.41s-8.09-1.32-8.93-5.1,1.76-7.49,5.91-8.41S294.92,247,295.76,250.76ZM278.3,213.55c-6.77,1.51-13.34-2.24-14.71-8.4s3-12.35,9.74-13.86,13.17,2.49,14.54,8.65S284.85,212.09,278.3,213.55Zm87.07-7.31c-4.37,1-8.57-1.43-9.46-5.4s1.9-7.94,6.27-8.91,8.57,1.43,9.45,5.4S369.52,205.31,365.37,206.24Z"/><path class="cls-2" d="M613.45,175.43a11.13,11.13,0,0,0-10.29,6.3l-51.46-9.37v-.9a12.73,12.73,0,0,0-.59-3.78l27.7-11a16.18,16.18,0,0,0,13.46,7c8.71,0,15.84-6.49,15.84-14.42a14.09,14.09,0,0,0-9.31-13l3.76-11.71c.4,0,.8.18,1.19.18a8.08,8.08,0,0,0,5.35-2,6.69,6.69,0,0,0,.39-10.09,8.45,8.45,0,0,0-11.08-.18,6.29,6.29,0,0,0-2.38,5,6.12,6.12,0,0,0,2.18,5,7.56,7.56,0,0,0,2.57,1.62l-3.56,11.53a21.68,21.68,0,0,0-4.75-.72,16.53,16.53,0,0,0-11.08,4.14l-4-3.6a9.22,9.22,0,0,0-.4-13,11.29,11.29,0,0,0-7.91-3.06,10.73,10.73,0,0,0-7.33,2.7,10.88,10.88,0,0,0-2.77,3.78l-16.62-2.52,2.17-28.47c5.35-.54,9.5-4.68,9.5-9.73,0-5.4-4.75-9.73-10.68-9.73s-10.69,4.33-10.69,9.73a10,10,0,0,0,8.11,9.55L538.64,123l-26.52-4.33a7.43,7.43,0,0,0-2-4.32,8,8,0,0,0-5.74-2.16,10.12,10.12,0,0,0-4.56,1.26l-13.06-13a6.78,6.78,0,0,0,2-4.51c0-4-3.56-7.2-7.92-7.2S472.93,92,472.93,96s3.56,7.21,7.91,7.21a9.46,9.46,0,0,0,4.56-1.26l13.06,13a6.62,6.62,0,0,0,0,9.19l-12.07,17.66A15.58,15.58,0,0,0,471,144.08a12,12,0,0,0-1.59,1.62L462,141.38a5.47,5.47,0,0,0,.79-3.07c0-4-3.56-7.2-7.91-7.2s-7.92,3.24-7.92,7.2,3.56,7.21,7.92,7.21a8.39,8.39,0,0,0,5.93-2.52l7.33,4.32a12.22,12.22,0,0,0,2,15.14,9.68,9.68,0,0,0,1.58,1.26l-6.33,8.1a12.77,12.77,0,0,0-4.56-.9c-5.93,0-10.88,4.33-10.88,9.91s4.75,9.91,10.88,9.91,10.89-4.32,10.89-9.91a9.27,9.27,0,0,0-3-6.66l6.73-8.29a16.4,16.4,0,0,0,5.34.9,14.18,14.18,0,0,0,6.73-1.62l14.85,20.54a6.53,6.53,0,0,0-2.77,5.4c0,4,3.56,7.21,7.91,7.21s7.92-3.24,7.92-7.21-3.56-7.2-7.92-7.2a10.11,10.11,0,0,0-3.36.72l-14.85-20.9c.4-.36.8-.54,1.19-.9a12,12,0,0,0,.6-18.2,8.85,8.85,0,0,0-1.39-1.08l11.88-17.66a6.59,6.59,0,0,0,2.57.54,8,8,0,0,0,5.34-2,8.48,8.48,0,0,0,1.78-2.16l26.52,4.14-2,31.35a16.25,16.25,0,0,0-8.32,2.88l-3.76-3.78a6.83,6.83,0,0,0,2-4.68c0-4-3.56-7.21-7.92-7.21s-7.91,3.24-7.91,7.21,3.56,7.2,7.91,7.2a10.12,10.12,0,0,0,4.56-1.26l3.76,3.79a13.12,13.12,0,0,0-4.16,9.54c0,7.39,6.33,13.34,14.25,13.7l.6,22c-5.35.54-9.5,4.68-9.5,9.73,0,5.4,4.75,9.73,10.68,9.73s10.69-4.33,10.69-9.73c0-5.23-4.35-9.37-10.09-9.73l-.6-22A15.09,15.09,0,0,0,550.91,176l51.46,9.37v.18c0,5.58,4.94,10.09,11.08,10.09s11.08-4.51,11.08-10.09S619.39,175.43,613.45,175.43Zm-12.27-60.54a4.4,4.4,0,0,1,2.57-.9,3.76,3.76,0,0,1,2.77,1.08,3.42,3.42,0,0,1-.19,5.05,4.31,4.31,0,0,1-5.55-.18,3.22,3.22,0,0,1-1-2.53A3.35,3.35,0,0,1,601.18,114.89Zm-146.07,27a3.62,3.62,0,1,1,4-3.61A3.81,3.81,0,0,1,455.11,141.92Zm5.94,44.86c-3.76,0-6.93-2.88-6.93-6.31s3.17-6.3,6.93-6.3,6.93,2.88,6.93,6.3S464.81,186.78,461.05,186.78Zm50.27,4.5a4,4,0,1,1-3.95-3.6A3.81,3.81,0,0,1,511.32,191.28Zm-23.55-31a10.77,10.77,0,0,1-6.93,2.53,11.33,11.33,0,0,1-7.52-2.89,8.92,8.92,0,0,1,.4-13.15,10.82,10.82,0,0,1,6.93-2.52,11.38,11.38,0,0,1,7.52,2.88A8.62,8.62,0,0,1,487.77,160.29ZM480.84,99.4a3.62,3.62,0,1,1,4-3.61A3.94,3.94,0,0,1,480.84,99.4Zm26.33,22.52a4.29,4.29,0,0,1-5.54-.18,3.42,3.42,0,0,1,.19-5,4.45,4.45,0,0,1,2.58-.9,3.78,3.78,0,0,1,2.77,1.08A3.43,3.43,0,0,1,507.17,121.92Zm85.1,16.57c6.53,0,11.88,4.87,11.88,10.81s-5.35,10.81-11.88,10.81-11.87-4.86-11.87-10.81S585.74,138.49,592.27,138.49Zm-27.9-13.69a7.13,7.13,0,0,1,4.75-1.62,6.7,6.7,0,0,1,4.94,2,5.87,5.87,0,0,1-.39,8.83,7.14,7.14,0,0,1-4.75,1.62,6.74,6.74,0,0,1-4.95-2A5.87,5.87,0,0,1,564.37,124.8Zm-6.14,4.68a8.74,8.74,0,0,0,3,6.49,11.31,11.31,0,0,0,7.92,3.06,11.74,11.74,0,0,0,6.92-2.34l4,3.6a13.75,13.75,0,0,0-3.36,8.83,15.24,15.24,0,0,0,.59,4.15l-27.71,11a14.94,14.94,0,0,0-9.89-6.31L542,126.78Zm-22-44.5c0-3.42,3-6.12,6.73-6.12s6.73,2.7,6.73,6.12-3,6.13-6.73,6.13S536.26,88.41,536.26,85Zm-18.41,70.81a3.62,3.62,0,1,1,4-3.6A3.8,3.8,0,0,1,517.85,155.79Zm26.92,61.08c0,3.42-3,6.12-6.73,6.12s-6.73-2.7-6.73-6.12,3-6.13,6.73-6.13S544.77,213.44,544.77,216.87Zm-7.91-35.5c-6.14,0-11.09-4.5-11.09-10.09s5-10.09,11.09-10.09a10.57,10.57,0,0,1,10.88,10.27C547.74,177.05,542.79,181.37,536.86,181.37Zm76.59,10.45c-4,0-7.12-2.88-7.12-6.48s3.16-6.49,7.12-6.49,7.13,2.88,7.13,6.49S617.21,191.82,613.45,191.82Z"/><path class="cls-2" d="M415.65,396.61a14.64,14.64,0,0,0-13.53,8.28l-67.6-12.31V391.4a16.47,16.47,0,0,0-.78-5L370.14,372a21.23,21.23,0,0,0,17.68,9.23c11.44,0,20.8-8.52,20.8-18.94,0-7.57-4.94-14.2-12.22-17l4.94-15.39c.52,0,1,.24,1.56.24a10.61,10.61,0,0,0,7-2.6,8.79,8.79,0,0,0,.52-13.26,11.09,11.09,0,0,0-14.56-.23,8.24,8.24,0,0,0-3.12,6.62,8,8,0,0,0,2.86,6.63,9.87,9.87,0,0,0,3.38,2.13l-4.68,15.15a28.67,28.67,0,0,0-6.24-.95A21.68,21.68,0,0,0,373.52,349l-5.2-4.74a12.1,12.1,0,0,0-.52-17,14.86,14.86,0,0,0-10.4-4,14.27,14.27,0,0,0-13.26,8.52l-21.84-3.32,2.86-37.4c7-.71,12.48-6.15,12.48-12.78,0-7.1-6.24-12.78-14-12.78s-14.05,5.68-14.05,12.78c0,5.92,4.42,11.13,10.66,12.55l-2.86,36.92L282.51,322a9.7,9.7,0,0,0-2.6-5.68,10.53,10.53,0,0,0-7.54-2.84,13.22,13.22,0,0,0-6,1.66l-17.16-17a8.92,8.92,0,0,0,2.6-5.92c0-5.21-4.68-9.47-10.4-9.47S231,287,231,292.22s4.68,9.47,10.4,9.47a12.36,12.36,0,0,0,6-1.66l17.16,17c-3.12,3.55-3.38,8.52,0,12.07l-15.86,23.2a20.46,20.46,0,0,0-20.29,3.08,15.88,15.88,0,0,0-2.08,2.13l-9.62-5.68a7.26,7.26,0,0,0,1-4c0-5.2-4.68-9.46-10.4-9.46s-10.4,4.26-10.4,9.46,4.68,9.47,10.4,9.47a11.05,11.05,0,0,0,7.8-3.31l9.62,5.68a16,16,0,0,0,2.6,19.88,12.6,12.6,0,0,0,2.08,1.66l-8.32,10.65a16.72,16.72,0,0,0-6-1.18c-7.8,0-14.3,5.68-14.3,13s6.24,13,14.3,13,14.3-5.69,14.3-13a12.18,12.18,0,0,0-3.9-8.76l8.85-10.89a21.59,21.59,0,0,0,7,1.18,18.62,18.62,0,0,0,8.84-2.13l19.5,27a8.58,8.58,0,0,0-3.64,7.1c0,5.21,4.68,9.47,10.4,9.47s10.4-4.26,10.4-9.47-4.68-9.47-10.4-9.47a13.09,13.09,0,0,0-4.42.95l-19.5-27.46c.52-.47,1-.71,1.56-1.18a15.83,15.83,0,0,0,.78-23.91,11.09,11.09,0,0,0-1.82-1.42l15.6-23.2a8.55,8.55,0,0,0,3.38.71,10.61,10.61,0,0,0,7-2.6,11.45,11.45,0,0,0,2.34-2.84l34.84,5.44-2.6,41.19a21.33,21.33,0,0,0-10.92,3.79l-4.94-5a9,9,0,0,0,2.6-6.16c0-5.21-4.68-9.47-10.4-9.47s-10.4,4.26-10.4,9.47,4.68,9.47,10.4,9.47a13.22,13.22,0,0,0,6-1.66l4.94,5a17.32,17.32,0,0,0-5.46,12.55c0,9.7,8.32,17.51,18.72,18l.78,28.88c-7,.71-12.48,6.15-12.48,12.78,0,7.1,6.24,12.78,14,12.78s14.05-5.68,14.05-12.78c0-6.87-5.72-12.31-13.27-12.78l-.78-28.88c7.81-.71,14.31-5.45,16.91-12.07l67.6,12.3v.24c0,7.34,6.5,13.26,14.57,13.26s14.56-5.92,14.56-13.26S423.45,396.61,415.65,396.61Zm-16.13-79.54a5.79,5.79,0,0,1,3.38-1.18,4.94,4.94,0,0,1,3.64,1.42,4.5,4.5,0,0,1-.26,6.63,5.65,5.65,0,0,1-7.28-.24,4.2,4.2,0,0,1-1.3-3.31A4.39,4.39,0,0,1,399.52,317.07Zm-191.9,35.51a4.76,4.76,0,1,1,5.2-4.74A5,5,0,0,1,207.62,352.58Zm7.8,58.94c-4.94,0-9.1-3.79-9.1-8.29s4.16-8.28,9.1-8.28,9.1,3.79,9.1,8.28S220.36,411.52,215.42,411.52Zm66.05,5.92a5.22,5.22,0,1,1-5.2-4.74A5,5,0,0,1,281.47,417.44Zm-30.94-40.72a14.21,14.21,0,0,1-9.1,3.32,14.92,14.92,0,0,1-9.88-3.79,11.71,11.71,0,0,1,.52-17.28,14.2,14.2,0,0,1,9.1-3.31,15,15,0,0,1,9.88,3.78A11.34,11.34,0,0,1,250.53,376.72Zm-9.1-80a4.76,4.76,0,1,1,5.2-4.74A5.17,5.17,0,0,1,241.43,296.72ZM276,326.3a5.64,5.64,0,0,1-7.28-.23,4.5,4.5,0,0,1,.26-6.63,5.79,5.79,0,0,1,3.38-1.18,4.94,4.94,0,0,1,3.64,1.42A4.48,4.48,0,0,1,276,326.3Zm111.81,21.78c8.58,0,15.6,6.39,15.6,14.2s-7,14.21-15.6,14.21-15.6-6.4-15.6-14.21S379.24,348.08,387.82,348.08Zm-36.66-18A9.37,9.37,0,0,1,357.4,328a8.87,8.87,0,0,1,6.5,2.6,7.72,7.72,0,0,1-.52,11.6,9.37,9.37,0,0,1-6.24,2.13,8.83,8.83,0,0,1-6.5-2.6A7.71,7.71,0,0,1,351.16,330.09Zm-8.06,6.16a11.51,11.51,0,0,0,3.9,8.52,14.86,14.86,0,0,0,10.4,4,15.39,15.39,0,0,0,9.1-3.08l5.2,4.74a18,18,0,0,0-4.42,11.6,19.65,19.65,0,0,0,.78,5.44l-36.4,14.44a19.65,19.65,0,0,0-13-8.28l3.12-40.95Zm-28.87-58.47c0-4.5,3.9-8,8.85-8s8.84,3.55,8.84,8-3.9,8.05-8.84,8.05S314.23,282.28,314.23,277.78Zm-24.18,93a4.75,4.75,0,1,1,5.2-4.73A5,5,0,0,1,290.05,370.8Zm35.37,80.25c0,4.5-3.91,8.05-8.85,8.05s-8.84-3.55-8.84-8.05,3.9-8.05,8.84-8.05S325.42,446.55,325.42,451.05ZM315,404.42c-8.06,0-14.56-5.92-14.56-13.26S307,377.91,315,377.91s14.31,6.15,14.31,13.49S322.82,404.42,315,404.42Zm100.64,13.73c-5.21,0-9.37-3.79-9.37-8.53s4.16-8.52,9.37-8.52,9.36,3.79,9.36,8.52S420.59,418.15,415.65,418.15Z"/><circle class="cls-1" cx="276.1" cy="202.98" r="16.3"/><circle class="cls-1" cx="54.99" cy="253.93" r="16.3"/><circle class="cls-1" cx="104.92" cy="493.38" r="16.3"/><circle class="cls-1" cx="357.62" cy="333.41" r="16.3"/><circle class="cls-1" cx="427.92" cy="455.68" r="16.3"/><circle class="cls-1" cx="556.31" cy="364.99" r="16.3"/><circle class="cls-1" cx="537.97" cy="171.39" r="16.3"/><line class="cls-3" x1="71.3" y1="253.93" x2="263.59" y2="205.15"/><line class="cls-3" x1="287.87" y1="199.94" x2="537.97" y2="171.39"/><line class="cls-3" x1="357.62" y1="328.31" x2="281.2" y2="208.08"/><polyline class="cls-3" points="429.96 456.7 422.61 457.71 113.07 500.51"/><line class="cls-3" x1="536.95" y1="181.58" x2="556.31" y2="364.99"/><line class="cls-3" x1="527.62" y1="179.21" x2="357.62" y2="333.41"/><line class="cls-4" x1="427.5" y1="439.5" x2="350.64" y2="341.69"/><line class="cls-4" x1="366.5" y1="345.5" x2="112.5" y2="488.5"/><line class="cls-4" x1="548.5" y1="370.5" x2="444.5" y2="455.5"/><line class="cls-4" x1="97.8" y1="487.19" x2="276.5" y2="202.5"/></svg>